<svg width="378" height="697" viewBox="0 0 378 697" fill="none" xmlns="http://www.w3.org/2000/svg">
<g opacity="0.25">
<path d="M591.803 133.863C591.803 97.3985 556.444 77.0964 529.639 76.7878C495.102 76.3924 478.329 90.2647 478.329 90.2647V65.6904C478.329 50.6295 325.55 46.666 325.55 46.666C310.666 46.666 172.771 50.6295 172.771 65.6904V90.2647C172.771 90.2647 150.734 74.8061 121.461 76.7878C94.7495 78.5981 59.2969 97.3985 59.2969 133.863C59.2969 210.754 207.8 249.694 221.121 279.716C223.341 293.391 202.248 309.442 208.909 311.227C215.479 312.985 238.142 289.03 241.841 292.399C245.543 295.768 276.377 365.327 272.431 378.013C268.484 390.696 258.617 399.412 257.63 408.925C256.642 418.436 286.245 433.497 286.245 433.497C286.245 433.497 278.679 446.668 274.406 454.108C270.129 461.55 254.175 544.473 247.762 550.816C241.349 557.159 186.585 557.159 186.585 564.094V575.388H137.907V638.804H511.878V575.388H464.515V564.094C464.515 557.162 409.751 557.162 403.338 550.816C396.925 544.476 380.974 461.55 376.7 454.108C372.424 446.668 364.858 433.497 364.858 433.497C364.858 433.497 394.458 418.436 393.473 408.925C392.486 399.412 382.619 390.694 378.672 378.013C374.726 365.327 405.56 295.768 409.262 292.399C412.961 289.03 435.627 312.985 442.194 311.227C448.855 309.442 427.762 293.391 429.982 279.716C443.301 249.694 591.803 210.754 591.803 133.863ZM471.426 118.8C471.426 118.8 490.174 98.1917 520.761 98.1917C551.351 98.1917 567.14 115.63 567.14 132.277C567.14 148.924 553.411 194.9 458.597 228.192L471.426 118.8ZM81.1688 132.277C81.1688 115.63 96.9575 98.1917 127.545 98.1917C158.135 98.1917 176.882 118.8 176.882 118.8L189.709 228.192C94.8975 194.9 81.1688 148.924 81.1688 132.277Z" fill="#C1C1C1"/>
</g>
</svg>
