<svg width="35" height="35" viewBox="0 0 35 35" fill="none" xmlns="http://www.w3.org/2000/svg">
<path d="M17.5013 2.91602C14.617 2.91602 11.7975 3.77131 9.39924 5.37375C7.00103 6.97619 5.13184 9.25379 4.02807 11.9185C2.92429 14.5833 2.63549 17.5155 3.19819 20.3444C3.76089 23.1733 5.14982 25.7718 7.18933 27.8113C9.22885 29.8508 11.8274 31.2398 14.6562 31.8025C17.4851 32.3652 20.4174 32.0764 23.0821 30.9726C25.7469 29.8688 28.0245 27.9996 29.6269 25.6014C31.2293 23.2032 32.0846 20.3837 32.0846 17.4993C32.0846 15.5842 31.7074 13.6879 30.9746 11.9185C30.2417 10.1492 29.1675 8.54156 27.8133 7.18738C26.4591 5.83319 24.8514 4.75899 23.0821 4.02611C21.3128 3.29322 19.4164 2.91602 17.5013 2.91602ZM14.5846 24.0618V10.9368L23.3346 17.4993L14.5846 24.0618Z" fill="white"/>
</svg>
