<svg width="20" height="18" viewBox="0 0 20 18" fill="none" xmlns="http://www.w3.org/2000/svg">
<g clip-path="url(#clip0_126_386)">
<path d="M8.62175 8.95928L14.5928 14.6486C14.6924 14.7435 14.8248 14.7965 14.9625 14.7965C15.1001 14.7965 15.2325 14.7435 15.3321 14.6486L15.3385 14.6421C15.387 14.5961 15.4256 14.5407 15.452 14.4792C15.4783 14.4178 15.4919 14.3517 15.4919 14.2848C15.4919 14.218 15.4783 14.1518 15.452 14.0904C15.4256 14.029 15.387 13.9735 15.3385 13.9275L9.71567 8.57035L15.3385 3.21536C15.387 3.16931 15.4256 3.11389 15.452 3.05246C15.4783 2.99104 15.4919 2.92488 15.4919 2.85804C15.4919 2.79118 15.4783 2.72503 15.452 2.66361C15.4256 2.60218 15.387 2.54676 15.3385 2.50071L15.3321 2.49428C15.2325 2.39931 15.1001 2.34632 14.9625 2.34632C14.8248 2.34632 14.6924 2.39931 14.5928 2.49428L8.62175 8.18357C8.56923 8.2336 8.52743 8.29378 8.49886 8.36045C8.4703 8.42712 8.45557 8.49889 8.45557 8.57143C8.45557 8.64396 8.4703 8.71574 8.49886 8.78241C8.52743 8.84908 8.56923 8.90925 8.62175 8.95928Z" fill="#D2F24F"/>
<path d="M0.049968 8.95928L6.02104 14.6486C6.12067 14.7435 6.25303 14.7965 6.39068 14.7965C6.52833 14.7965 6.66069 14.7435 6.76032 14.6486L6.76675 14.6421C6.81522 14.5961 6.85381 14.5407 6.88018 14.4792C6.90656 14.4178 6.92015 14.3517 6.92015 14.2848C6.92015 14.218 6.90656 14.1518 6.88018 14.0904C6.85381 14.029 6.81522 13.9735 6.76675 13.9275L1.1439 8.57035L6.76675 3.21536C6.81522 3.16931 6.85381 3.11389 6.88018 3.05246C6.90656 2.99104 6.92015 2.92488 6.92015 2.85804C6.92015 2.79118 6.90656 2.72503 6.88018 2.66361C6.85381 2.60218 6.81522 2.54676 6.76675 2.50071L6.76032 2.49428C6.66069 2.39931 6.52833 2.34632 6.39068 2.34632C6.25303 2.34632 6.12067 2.39931 6.02104 2.49428L0.049968 8.18357C-0.00254519 8.2336 -0.0443514 8.29378 -0.0729165 8.36045C-0.101482 8.42712 -0.116211 8.49889 -0.116211 8.57143C-0.116211 8.64396 -0.101482 8.71574 -0.0729165 8.78241C-0.0443514 8.84908 -0.00254519 8.90925 0.049968 8.95928Z" fill="#D2F24F"/>
</g>
<defs>
<clipPath id="clip0_126_386">
<rect width="17.1429" height="20" fill="white" transform="matrix(0 -1 1 0 0 17.1429)"/>
</clipPath>
</defs>
</svg>
